<?xml version="1.0" encoding="utf-8"?>
<!-- Generator: Adobe Illustrator 23.0.6, SVG Export Plug-In . SVG Version: 6.00 Build 0)  -->
<svg version="1.1" id="IronGolem" xmlns="http://www.w3.org/2000/svg" xmlns:xlink="http://www.w3.org/1999/xlink" x="0px" y="0px"
	 viewBox="0 0 32 35" style="enable-background:new 0 0 32 35;" xml:space="preserve">
<style type="text/css">
	.st0{fill:none;}
	.st1{fill:#99928D;}
	.st2{fill:#ADA49F;}
	.st3{fill:#AA9D93;}
	.st4{fill:#E6D4C6;}
	.st5{fill:#6E665F;}
	.st6{fill:#55433A;}
	.st7{fill:#436320;}
	.st8{fill:#68794B;}
	.st9{fill:#EAC02C;}
	.st10{fill:#5C6D44;}
	.st11{fill:#9C8B81;}
	.st12{fill:#A59289;}
	.st13{fill:#7A716A;}
	.st14{fill:#473D39;}
	.st15{fill-rule:evenodd;clip-rule:evenodd;fill:#665852;}
	.st16{fill-rule:evenodd;clip-rule:evenodd;fill:#977D6D;}
	.st17{fill:#AE9D93;}
	.st18{fill:#665852;}
	.st19{fill:#4C3B34;}
	.st20{fill:#4C3A34;}
	.st21{fill:#A38D80;}
	.st22{fill:#907F75;}
	.st23{fill:#897D75;}
	.st24{fill:#7A695F;}
	.st25{fill:#46342B;}
	.st26{fill:#6D0026;}
	.st27{fill:#5A001D;}
	.st28{fill:#765F51;}
	.st29{fill:#7B7069;}
	.st30{fill:#6F6660;}
	.st31{fill:#645C56;}
	.st32{fill:#5E5346;}
	.st33{fill:#8E8782;}
</style>
<g>
	<polygon class="st0" points="30,21 30,21 30,21 	"/>
	<polygon class="st1" points="18,25 18,34 23,34 23,25 21,25 	"/>
	<polygon class="st2" points="13,33 13,34 15,34 15,33 14,33 	"/>
	<polygon class="st2" points="14,26 13,26 13,27 13,28 14,28 14,29 15,29 15,25 14,25 	"/>
	<polygon class="st2" points="13,29 11,29 11,27 11,26 12,26 12,25 11,25 10,25 10,34 11,34 11,31 12,31 13,31 14,31 14,30 13,30 	
		"/>
	<rect x="9" y="24" class="st3" width="1" height="1"/>
	<rect x="10" y="24" class="st4" width="1" height="1"/>
	<rect x="21" y="24" class="st4" width="2" height="1"/>
	<polygon class="st5" points="10,25 9,25 9,35 10,35 10,34 	"/>
	<polygon class="st5" points="18,25 17,25 17,35 18,35 18,34 	"/>
	<polygon class="st6" points="12,34 11,34 10,34 10,35 15,35 15,34 13,34 	"/>
	<rect x="18" y="34" class="st6" width="5" height="1"/>
	<rect x="11" y="26" class="st7" width="1" height="1"/>
	<rect x="12" y="26" class="st8" width="1" height="1"/>
	<rect x="13" y="25" class="st8" width="1" height="1"/>
	<polygon class="st8" points="14,30 14,31 14,32 15,32 15,29 14,29 	"/>
	<rect x="11" y="31" class="st8" width="1" height="3"/>
	<polygon class="st7" points="12,31 12,34 13,34 13,33 13,31 	"/>
	<polygon class="st7" points="13,30 14,30 14,29 14,28 13,28 13,29 	"/>
	<rect x="14" y="32" class="st7" width="1" height="1"/>
	<polygon class="st9" points="13,33 14,33 14,32 14,31 13,31 	"/>
	<polygon class="st9" points="11,27 11,29 13,29 13,28 13,27 12,27 	"/>
	<rect x="13" y="23" class="st1" width="1" height="1"/>
	<polygon class="st1" points="16,24 16,25 17,25 17,24 21,24 21,23 16,23 	"/>
	<polygon class="st1" points="17,25 18,25 21,25 21,24 17,24 	"/>
	<rect x="13" y="24" class="st1" width="1" height="1"/>
	<polygon class="st6" points="15,22 14,22 13,22 12,22 11,22 11,23 12,23 13,23 14,23 15,23 16,23 21,23 21,22 16,22 	"/>
	<rect x="11" y="23" class="st8" width="1" height="1"/>
	<rect x="11" y="24" class="st8" width="1" height="1"/>
	<rect x="12" y="25" class="st7" width="1" height="1"/>
	<rect x="12" y="23" class="st7" width="1" height="1"/>
	<rect x="12" y="24" class="st7" width="1" height="1"/>
	<rect x="14" y="23" class="st7" width="1" height="1"/>
	<rect x="14" y="24" class="st7" width="1" height="1"/>
	<rect x="15" y="23" class="st7" width="1" height="1"/>
	<rect x="15" y="24" class="st10" width="1" height="1"/>
	<polygon class="st11" points="25,21 25,18 21,18 20,18 20,17 19,17 19,16 16,16 16,15 20,15 20,14 25,14 25,12 21,12 21,13 19,13 
		18,13 18,12 11,12 11,13 12,13 14,13 14,14 15,14 15,17 15,19 16,19 16,22 21,22 24,22 24,21 	"/>
	<polygon class="st7" points="9,13 9,12 8,12 8,15 8,18 8,19 9,19 9,18 9,16 	"/>
	<rect x="9" y="12" class="st7" width="2" height="1"/>
	<polygon class="st7" points="10,18 9,18 9,19 9,21 9,22 10,22 10,19 	"/>
	<rect x="10" y="18" class="st7" width="1" height="1"/>
	<rect x="11" y="19" class="st7" width="1" height="3"/>
	<rect x="11" y="13" class="st7" width="1" height="2"/>
	<rect x="11" y="16" class="st7" width="1" height="2"/>
	<rect x="11" y="18" class="st7" width="1" height="1"/>
	<rect x="12" y="15" class="st7" width="2" height="1"/>
	<rect x="11" y="15" class="st7" width="1" height="1"/>
	<polygon class="st7" points="14,18 14,22 15,22 15,19 15,17 14,17 	"/>
	<rect x="8" y="19" class="st8" width="1" height="2"/>
	<rect x="10" y="19" class="st8" width="1" height="3"/>
	<rect x="13" y="18" class="st8" width="1" height="4"/>
	<polygon class="st8" points="14,16 14,17 15,17 15,14 14,14 14,15 	"/>
	<rect x="15" y="19" class="st8" width="1" height="3"/>
	<polygon class="st9" points="11,16 9,16 9,18 10,18 11,18 	"/>
	<polygon class="st9" points="14,15 14,14 14,13 12,13 12,15 	"/>
	<polygon class="st1" points="21,16 22,16 22,17 25,17 25,14 20,14 20,15 21,15 	"/>
	<polygon class="st12" points="9,16 11,16 11,15 11,13 9,13 	"/>
	<polygon class="st12" points="14,18 14,17 14,16 12,16 12,18 12,19 12,22 13,22 13,18 	"/>
	<polygon class="st5" points="25,22 24,22 24,33 25,33 25,32 	"/>
	<polygon class="st13" points="25,22 25,32 26,32 26,27 26,25 26,22 26,22 	"/>
	<rect x="25" y="32" class="st14" width="1" height="1"/>
	<polygon class="st8" points="29,18 30,18 30,18 30,15 29,15 	"/>
	<rect x="26" y="12" class="st8" width="1" height="1"/>
	<polygon class="st7" points="27,15 28,15 28,14 28,12 27,12 27,13 	"/>
	<polygon class="st7" points="28,15 29,15 30,15 30,14 28,14 	"/>
	<rect x="28" y="12" class="st9" width="2" height="2"/>
	<polygon class="st15" points="25.7,18 25,18 25,21 26,21 26,21 	"/>
	<polygon class="st15" points="26,22 26,21 25,21 24,21 24,22 25,22 	"/>
	<polygon class="st15" points="26,21 26,18 25.7,18 	"/>
	<polygon class="st7" points="25.1,12 25,12 25,14 25.3,14 	"/>
	<polygon class="st7" points="25.3,14 26,14 26,13 26,12 25.1,12 	"/>
	<polygon class="st1" points="7,27 6,27 6,29 4,29 4,33 7,33 7,32 	"/>
	<polygon class="st1" points="7,12 4,12 4,27 5,27 5,25 7,25 7,22 7,18 7,15 	"/>
	<g>
		<polygon class="st16" points="28,27 28,25 26,25 26,27 27,27 27,29 28,29 30,29 30,27 		"/>
		<polygon class="st16" points="26,17 26,14 25.3,14 25,14 25,17 22,17 22,16 21,16 21,15 20,15 16,15 16,16 19,16 19,17 20,17 
			20,18 21,18 25,18 25.7,18 26,18 		"/>
		<polygon class="st16" points="5,27 4,27 4,29 6,29 6,27 7,27 7,25 5,25 		"/>
	</g>
	<polygon class="st13" points="7,25 7,27 7,32 8,32 8,22 7,22 	"/>
	<polygon class="st5" points="4,27 4,12 2,12 2,33 4,33 4,29 	"/>
	<rect x="2" y="11" class="st5" width="2" height="1"/>
	<rect x="7" y="12" class="st7" width="1" height="3"/>
	<rect x="7" y="15" class="st17" width="1" height="3"/>
	<polygon class="st18" points="8,19 8,18 7,18 7,22 8,22 8,21 	"/>
	<rect x="8" y="21" class="st18" width="1" height="1"/>
	<rect x="7" y="32" class="st19" width="1" height="1"/>
	<polygon class="st20" points="9,12 11,12 18,12 18,11 14,11 13,11 9,11 8,11 8,12 	"/>
	<polygon class="st20" points="21,12 25,12 25,11 24,11 21,11 	"/>
	<rect x="4" y="11" class="st20" width="3" height="1"/>
	<rect x="7" y="11" class="st20" width="1" height="1"/>
	<polygon class="st7" points="26,11 26,12 27,12 28,12 30,12 30,11 	"/>
	<polygon class="st7" points="25.1,12 25,11 25,12 	"/>
	<polygon class="st7" points="26,12 26,11 25,11 25.1,12 	"/>
	<path class="st5" d="M13,6V5V3V2H9v9h4V6z M10,3h1v2h-1V3z M12,9h-1V8h1V9z"/>
	<rect x="13" y="3" class="st21" width="1" height="2"/>
	<rect x="13" y="6" class="st21" width="1" height="5"/>
	<rect x="14" y="3" class="st22" width="10" height="2"/>
	<polygon class="st22" points="19,7 20,7 20,6 18,6 18,7 	"/>
	<polygon class="st22" points="23,7 23,9 23,10 21,10 21,11 24,11 24,6 23,6 	"/>
	<polygon class="st22" points="17,9 15,9 15,7 15,6 14,6 14,11 18,11 18,9 	"/>
	<rect x="13" y="2" class="st23" width="1" height="1"/>
	<rect x="13" y="5" class="st24" width="1" height="1"/>
	<polygon class="st25" points="14,6 15,6 18,6 20,6 21,6 23,6 24,6 24,5 14,5 	"/>
	<rect x="15" y="7" class="st26" width="2" height="2"/>
	<rect x="22" y="7" class="st27" width="1" height="2"/>
	<polygon class="st28" points="21,9 21,10 23,10 23,9 22,9 	"/>
	<rect x="19" y="12" class="st18" width="2" height="1"/>
	<rect x="19" y="11" class="st18" width="2" height="1"/>
	<polygon class="st18" points="21,7 20,7 20,9 19,9 19,11 21,11 21,10 21,9 	"/>
	<rect x="19" y="7" class="st29" width="1" height="2"/>
	<rect x="20" y="6" class="st30" width="1" height="1"/>
	<rect x="18" y="12" class="st25" width="1" height="1"/>
	<rect x="18" y="11" class="st25" width="1" height="1"/>
	<polygon class="st25" points="19,9 19,7 18,7 18,9 18,11 19,11 	"/>
	<polygon points="17,7 17,9 18,9 18,7 18,6 15,6 15,7 	"/>
	<polygon points="21,9 22,9 22,7 23,7 23,6 21,6 21,7 	"/>
	<rect x="14" y="2" class="st31" width="10" height="1"/>
	<rect x="10" y="3" class="st32" width="1" height="2"/>
	<g>
		<polygon class="st33" points="30,18 29,18 29,15 28,15 27,15 27,13 26,13 26,14 26,17 26,18 26,21 26,21 26,22 26,22 26,25 28,25 
			28,27 30,27 30,21 30,21 30,21 30,21 30,18 		"/>
		<polygon class="st33" points="27,29 27,27 26,27 26,32 26,33 30,33 30,29 28,29 		"/>
	</g>
	<rect x="11" y="8" class="st29" width="1" height="1"/>
</g>
</svg>
